/* XPM */
static char *_0816_c81adaf811883048faa791097ef7a5c34f283183ca55486a86183d5fe3c8011d[] = {
/* columns rows colors chars-per-pixel */
"64 64 256 2 ",
"   c black",
".  c #0000A8",
"X  c #00A800",
"o  c #00A8A8",
"O  c #A80000",
"+  c #A800A8",
"@  c #A85400",
"#  c #4C4436",
"$  c gray33",
"%  c #5454FC",
"&  c #524A42",
"*  c #5E5246",
"=  c #736352",
"-  c #685D4C",
";  c #FCFC54",
":  c gray99",
">  c #ECECEC",
",  c gainsboro",
"<  c #D0D0D0",
"1  c #C0C0C0",
"2  c #B4B4B4",
"3  c gray66",
"4  c #989898",
"5  c gray55",
"6  c #7C7C7C",
"7  c gray44",
"8  c #646464",
"9  c gray33",
"0  c #484848",
"q  c gray22",
"w  c #2C2C2C",
"e  c #202020",
"r  c #FC0000",
"t  c #EC0000",
"y  c #E00000",
"u  c #D40000",
"i  c #C80000",
"p  c #BC0000",
"a  c #B00000",
"s  c #A40000",
"d  c #980000",
"f  c #880000",
"g  c #7C0000",
"h  c #700000",
"j  c #640000",
"k  c #580000",
"l  c #4C0000",
"z  c #400000",
"x  c #FCD8D8",
"c  c #FCB8B8",
"v  c #FC9C9C",
"b  c #FC7C7C",
"n  c #FC5C5C",
"m  c #FC4040",
"M  c #FC2020",
"N  c #FC0000",
"B  c #FCA85C",
"V  c #FC9840",
"C  c #FC8820",
"Z  c #FC7800",
"A  c #E46C00",
"S  c #CC6000",
"D  c #B45400",
"F  c #9C4C00",
"G  c #FCFCD8",
"H  c #FCFCB8",
"J  c #FCFC9C",
"K  c #FCFC7C",
"L  c #FCF85C",
"P  c #FCF440",
"I  c #FCF420",
"U  c #FCF400",
"Y  c #E4D800",
"T  c #CCC400",
"R  c #B4AC00",
"E  c #9C9C00",
"W  c #848400",
"Q  c #706C00",
"!  c #585400",
"~  c #404000",
"^  c #849C7B",
"/  c #738C6B",
"(  c #6B7B63",
")  c #637352",
"_  c #5A6B52",
"`  c #525A4A",
"'  c #4A5242",
"]  c #425239",
"[  c #394A39",
"{  c #313931",
"}  c #313929",
"|  c #293129",
" . c #293121",
".. c #212921",
"X. c #182118",
"o. c #181818",
"O. c #00FC00",
"+. c #00EC00",
"@. c #00E000",
"#. c #00D400",
"$. c #04C800",
"%. c #04BC00",
"&. c #04B000",
"*. c #04A400",
"=. c #049800",
"-. c #048800",
";. c #047C00",
":. c #047000",
">. c #046400",
",. c #045800",
"<. c #044C00",
"1. c #044000",
"2. c #C8BFB2",
"3. c #A89A85",
"4. c #9A8C77",
"5. c #7CFCF8",
"6. c #5CFCFC",
"7. c #40FCFC",
"8. c #20FCFC",
"9. c #00FCFC",
"0. c #00E4E4",
"q. c #00CCCC",
"w. c #00B4B4",
"e. c #009C9C",
"r. c #008484",
"t. c #007070",
"y. c #005858",
"u. c #004040",
"i. c #94846B",
"p. c #8C7B67",
"a. c #847B63",
"s. c #81735D",
"d. c #7B6B5A",
"f. c #007CCC",
"g. c #006CB4",
"h. c #005C9C",
"j. c #736B5A",
"k. c #736B52",
"l. c #9C9CFC",
"z. c #7C80FC",
"x. c #5C60FC",
"c. c #4040FC",
"v. c #2024FC",
"b. c #0004FC",
"n. c #0000FC",
"m. c #0000EC",
"M. c #0000E0",
"N. c #0000D4",
"B. c #0000C8",
"V. c #0000BC",
"C. c #0000B0",
"Z. c #0000A4",
"A. c #000098",
"S. c #000088",
"D. c #00007C",
"F. c #000070",
"G. c #000064",
"H. c #000058",
"J. c #00004C",
"K. c #000040",
"L. c #282828",
"P. c #FCE034",
"I. c #FCD424",
"U. c #FCCC18",
"Y. c #FCC008",
"T. c #FCB400",
"R. c #B420FC",
"E. c #A800FC",
"W. c #9800E4",
"Q. c #8000CC",
"!. c #7400B4",
"~. c #60009C",
"^. c #500084",
"/. c #440070",
"(. c #340058",
"). c #280040",
"_. c #FCD8FC",
"`. c #FCB8FC",
"'. c #FC9CFC",
"]. c #FC7CFC",
"[. c #FC5CFC",
"{. c #FC40FC",
"}. c #FC20FC",
"|. c #FC00FC",
" X c #E000E4",
".X c #C800CC",
"XX c #B400B4",
"oX c #9C009C",
"OX c #840084",
"+X c #6C0070",
"@X c #580058",
"#X c #400040",
"$X c #FCE8DC",
"%X c #FCE0D0",
"&X c #FCD8C4",
"*X c #FCD4BC",
"=X c #FCCCB0",
"-X c #FCC4A4",
";X c #FCBC9C",
":X c #FCB890",
">X c #FCB080",
",X c #FCA470",
"<X c #FC9C60",
"1X c #F0945C",
"2X c #E88C58",
"3X c #DC8854",
"4X c #D08050",
"5X c #C87C4C",
"6X c #BC7848",
"7X c #B47044",
"8X c #A86840",
"9X c #A0643C",
"0X c #9C6038",
"qX c #905C34",
"wX c #885830",
"eX c #80502C",
"rX c #744C28",
"tX c #6C4824",
"yX c #5C4020",
"uX c #543C1C",
"iX c #483818",
"pX c #403018",
"aX c #382C14",
"sX c #28200C",
"dX c #600064",
"fX c #006464",
"gX c #006060",
"hX c #00001C",
"jX c #00002C",
"kX c #302410",
"lX c #480048",
"zX c #500050",
"xX c #000034",
"cX c gray11",
"vX c #4C4C4C",
"bX c gray36",
"nX c gray25",
"mX c gray19",
"MX c #343434",
"NX c #2E2B22",
"BX c #B8E8E8",
"VX c #9CDCDC",
"CX c #74C8C8",
"ZX c #48C0C0",
"AX c #20B4B4",
"SX c #20B0B0",
"DX c #00A4A4",
"FX c #009898",
"GX c #008C8C",
"HX c #008484",
"JX c #007C7C",
"KX c #007878",
"LX c #007474",
"PX c #007070",
"IX c #006C6C",
"UX c #980088",
/* pixels */
"} X.X.  o.              X.[ ] ` q ] [ mXo.e o.          o....._ ` [ q 0 X.o.1.} [ _ ] ] ] / _ { ..o.              X.X.[ [ ] [ ` ",
") _ ) _ ]   o.      X.q ` _ _ 7 7 [ _ ` | o.X.  X.       .] ) ^ 4 6 ( / ] [ ,.` ( / ^ ^ / ^ ] / 8 ]     1.1.1.X.} ] ] _ ^ ] / / ",
"3 ^ 3 ) _  .|     X.] _ ^ 5 / / ^ ^ 8 ^ 8 _ _ ` ,.1.[ } ] 5 4 3 3 3 3 ^ _ ] [ / ( ^ ^ 3 3 4 4 ^ / _  .X.}  .<..._ ( ^ 4 4 ^ ^ / ",
"/ ( ^ 4 } ^ ../ / ] ] ( 4 3 ^ 3 2 ^ 3 3 3 _ / / ) _ _ _ 3 ^ ^ 2 2 3 3 / / _ 4 4 ( ^ 4 4 4 3 ^ / ^ ( ] ,.] ] / ^ / / 3 4 3 3 3 ^ ",
"2 3 3 4 4 ( _ ^ ^ ) 4 3 3 3 3 2 ^ 3 2 2 4 ^ 3 4 ( _ / 3 4 ^ 3 4 3 2 4 3 4 ^ 3 3 3 ) ^ ^ ^ 3 3 3 / ^ ] _ ^ / ( ( / ) ^ ^ 3 3 4 3 ",
"4 3 2 2 3 ^ 4 3 3 ) ^ / 3 3 3 3 2 3 3 2 2 2 2 ^ / 4 ^ ( 2 2 2 3 3 4 3 / 2 3 ^ 3 4 ^ 4 4 / ^ ^ 3 4 / ) ^ ^ _ 4 ^ ^ 4 3 3 3 2 2 4 ",
"2 4 2 1 ^ / ^ 2 3 / ^ / / 3 4 4 ^ 3 4 3 2 2 2 3 3 ^ ^ ^ ,.3 ^ ^ 3 4 3 3 ^ 3 2 2 3 4 ^ / _ / ) / / 4 / 4 4 4 4 4 ^ 3 ^ 3 2 2 2 ^ ",
"^ ,.2 2 3 ^ 3 ^ 2 ( / 4 3 / 4 4 / / 4 3 ^ 3 2 3 ^ 3 3 3 ^ ^ 4 3 ^ ^ 3 4 2 2 3 ( 2 3 3 ^ / ^ ^ 2 3 4 3 4 3 4 ) ^ 4 3 ^ 2 3 3 2 / ",
"( 3 ^ ) 3 ^ 4 4 3 _ / ( / 4 ^ / _ / 4 3 3 4 4 2 3 3 3 4 ( / / ^ ^ 4 ^ ( 3 3 2 2 3 3 ^ ^ ( ^ 3 4 ^ 3 ^ 4 ^ / 4 3 3 ^ 3 3 ^ 2 ) ^ ",
"^ 4 3 3 4 ^ 4 4 / / ) ( ( 4 [ ) / / ) / ) ^ ^ ^ 4 3 ^ 4 ^ ^ _ ^ ] 4 ^ 3 2 ^ 2 3 2 4 ^ 4 3 4 ^ 4 _ ) 4 / 3 ^ ^ ) 3 ^ 4 2 2 2 2 4 ",
":.4 2 4 4 ^ 3 ^ ] ) / 6 4 ^ 6 ) _ ( [ 4 ^ ( ^ ^ ^ ^ ^ 3 3 5 ^ ^ ( 4 3 3 4 3 2 2 3 4 ( ^ / ^ 3 2 4 ^ 4 / / ^ ^ / / / 3 2 3 3 5 4 ",
"5 4 6 4 ^ 3 4 ( _ ( / ( / ^ } _ 6 ,./ ] ] 4 4 2 4 ( 3 ( ^ ^ 6 ^ / 6 5 3 2 2 2 3 4 3 4 ^ 3 6 4 ^ ^ _ ) _ _ / ) / ] / 4 3 2 3 4 3 ",
"/ ` 5 ^ ( ^ ^ _ ( / / / 6 5 8 _ ( ( [  .) 8 5 4 4 ^ 5 4 / 4 4 3 4 4 5 3 4 3 ^ 4 4 3 4 _ 3 5 _ ] ( _ ] >.` _ _ _ ( / / ) 3 3 6 ^ ",
"/ ) ( ( ) / ^ / / / _ ) ` _ _ 8 0 0 ] _ ) 5 6 ^ 3 ( ^ ^ ^ 5 / 4 6 8 ( 6 / ^ 4 ^ _ 4 4 ^ 6 bX8 ,.] ] ] } ] } ' _ bX4 3 3 4 ^ ^ ) ",
"/ 4 4 4 / ( 4 / 6 / >._ ' nX<.} q [ ) _ ( ( 8 ^ 5 3 4 ` ( _ ^ / ' ) _ bX( / 5 4 6 _ ^ 7 ( 7 ' <.<.} [ [ [ [ >._ / _ 4 4 ^ 5 4 ) ",
"5 ( 4 ( ( 5 ^ 5 ( ] ,.} <.' <.} ] ,.` ' ,.q 6 ^ ^ ) 8 ' ) ( ^ / 8 7 8 _ ' _ ( [ ,.[ ' ) bX$ $ [ <.q bXbXvX{ ] ) 6 7 ^ / ( _ / ) ",
"( 5 / / / ^ 5 ( ( ] ] <.{ [ ..1.1.1.<.] ] vX6 ] ( / ( ) ( / 5 / _ 8 7 _ ' ` [ [ 0 bX1.] } vX] [ <.nXvX( ( nX( ( / ( / ( ` _ ) nX",
"' ) ] / / / 7 ` ` } ] ` ' 1.1. . .<. .[ _ ) 5 ( ` 6 ) ( ' ` ^ 4 / / ) _ ] <.} [ 0 ' 1.1.[ { 1.| ,.[ $ ( ( 7 ( _ / ] / ) ( ' ' mX",
"^ ( / / _ / / ( ) ) '  .[ <.1. .<.<.1.q ) / ( / ^ 5 ( / ) 7 ) ) ) 7 _ ` ` <.[ | 1.] [ 1.| | | L.` >.[ bX5 ( ( 4 / ) ` [ ) ' ` _ ",
"^ ] ^ ^ / ^ / ( } [ 1. .1...1.1.<.,.{ 0 _ _ / ] / ) / / ( _ $ bX6 / ( ) ( ] 0 <.<.[ [ { { 1. .MXbX>._ 5 / ^ ( 5 6 ) ( ( / ^ 5 / ",
"^ ^ ^ / _ ( ' 8 ` 0 <. .1...1.<.<.[ vXnX_ 5 / ) ) >.' _ _ >.' 8 ` ` _ ,.] ` { <.<...1.1.| 1.1.' $ _ ] 7 / 4 5 ^ 7 / / ( 4 / ( / ",
") / _ _ _ / ^ {  .[  .<.1. .1...[ ] ' 7 ( 5 / >.` [ ` ' ` >.] ' 6 ( bX' [ _ _ } [ { } | w | { >._ / ( / ^ 5 / ( / 7 ) ` ( ] ) ) ",
"_ ^ ( / ( 6 ) bXq ] 1.1. ...nX] _ [ ( / ) / / >.:.] 7 _ [ [ ] $ bX$ ( _ ,.[ bX..1.| MXe L...q ' ) [ ' / ^ ( / / / ^ / ` / ) / / ",
"[ ) ^ ( ( / 7 bXnXvX| ..L.1.q 0 ` _ 5 ( ( / / ( / ( ( vX{ ,.` ( 8 _ ` _ ` $ nXo...nXq e X.1.{ q ) 6 bX/ / / ( ( / / ] ' >.>.,._ ",
"] _ ^ ) ^ ( ( ' [ 0 w e w { q bX( _ 7 / 5 / / ) _ _ ' 0 { <.` } ` ) _ ' MXmX{ ' vXnXMXe X.1.{ q ` / bX) ^ / ) ) ] ) ` [ ,._ ] ,.",
"` ) ( _ ^ _ 6 _ [ L.mX1.| q MX' ] } 6 / [ :.6 / ` bX$ 0 ,.<.[ ] ,.,.,.` mX.. .0 [ 1.X.e e  .MX_ ( ^ / ( 5 ( 7 / _ ] ,.>.>.] _ ] ",
") ^ 6 ( ( / ] ] [  .[ ....} mXbX_ _ ` ) ) / 7 bX/ / 7 ` _ { mX$ _ ,.` nXMX0 0 0 } 1.e X.1.1.| ] >./ _ ) / ( 5 ) _ _ [ ,.] [ >.[ ",
"] ] ( _ _ [ } ..[ ] 1.{ <.} _ ] [ / ) 6 / / ] 6 ( ` } ,.]  .0 q  .1.<._ $ vX$ 0 mX{ w e X.<...{ ,./ 8 / ( / / 8  .] ,.1. .1.<.,.",
"_ ` _ ` ] [ ] | ' ] 1. .,.[ _ ` ) ` ( 5 ) ) _ 8 ( _ ( _ bX` q [ | ] <.` nX$ 0 nXw MXw w | <.{ nX[ _ { [ / ` _ $ <.,.<.<.<.1.1.,.",
"` ` ' ( ` _ ] ` } ] ..1.1.<.] ( _ _ ` ' ] ' ' 0 ] } { { _ } q ` ] ] | mXnX ... .vXnXq nX| [ [ }  ._ _ _ ( 8 0 nX} <.<. .1.X.1.<.",
"' ( ' ( 7 _ ' ] <.] } 1.{ { ] _ _ ] ] ] ' 8 _ q nX( ' ' ) $ nX[ q 0 nXL.mX| mX| `  .` ` } 8 [ <.,.>.` 0 [ } <.<... .1.X.1... .1.",
"[ } _ ) 8 } ` [ 1.[ { 1.1.1.] _ [ ] 0 ] _ ] >.{ $ [ 7 8  .mX| 1...nXq q 0 { <.nX' ] } ` _ $ MX[ ] <.[ [ 1... .1.| 1.1.<.1...1. .",
"8 / _ 7 7 ] ..` } | nX} 1.<._ ) ) _ bX' _ <.[ ` 7 ) q 0 1...| 1...w ..L.q [ <.' ( ( [ 8 ( 7 8 ' ] ' | 1.1.| | 1.| 1.1.<.<.} <.( ",
") ^ ) 6 5 7 _ ] [ [ { <.] ,.[ >.>.( ( [ nX{ <.<.vXbX] | | 1.| | e w w mX1.| ' [ ` ` } ( _ ( 7 _ ` [ L.| | | 1.X.L.| { | { MX_ _ ",
"_ / ) 5 6 q ) ' 1. . . .{ ,._ ` ] >.:.,.] [ 1.' ` |  .} 1.<.1...e L.L.MX| 1.q ] / 5 ( ^ 6 8 ` bX0 q |  .1.} } 1.L.q nX ._ 8 0 ' ",
"( ^ ( ` 8 { ] { ] <. .{ 0 { 8 ,.<.] ] _ >.' q 8 bXq [ 1.X.1.X.1.L.e w q [ ` ] ' 6 bXbX/ ( $ ( $ nXq <.1.{ <.1.[ $ 0 vX_ 7 7 ' vX",
"] 7 _ 7 bX] 1.q [ 1.1.1.' mX{ <.<.) :._ ] { bXbXbX0 [ 1. .1.X.1...L.mXmX ._ ) ' 7 6 6 ( / ( ( vX| vX<. .| [ ] bXmXw 0 ( q nX_ bX",
"bX6 ( ( ` [ ....| .. .1.[ ,.[ [ ] ` }  .} 1.$ {  .| nX..| 1.X.1.1.X.q ' 0 { ( _ 7 7 6 _ >.} ` [ <.' { 1.1.| { ' vXbXq bX[ 6 0 8 ",
"6 _ 6 _ ]  .1.1.<.1.1. .<.,.' [ { { ' ] ` <.vXL.] 1.| e e X.1.1.| 1... .' ' bX_ 6 / ( ;.` ' ` ,.[ nXL.| ] ' ,.` nX` ] 8 / 5 7 bX",
"bXnX/ 8 <.| ..1.<. ...1.[ { [ [ 0 nX<.,.} | mXmX..1.q e e e e | w | ` _ ) >.` ] ( / ( ) ` >.] [ [ q MX..1.1.{ q ) _ } ' ( ( 7 ( ",
"$ } [ ` } ..e 1.1. . .1.' ] ,.<.{ ' [ <.| L...vX..1.nX..L.e e L...mX .[ } ] ] _ 8 ' ` ) ` ] ,.{ <.| mX..1.1.` MX` ) / ( ^ ( 8 ` ",
"{  .` [ [ 1...1.X.1.,.<.[ <.<.] ' <.<. .w | 1.L.[ nX| 1.e e ..1.| bX'  .` _ ' 6 / ` ) { <.>.} [ ,.1.1.<.} [ ' { [ ( vX` 6 ` ] 8 ",
"' [  .1.<.X.1.X.1...1...[ <.......X.1.| mXL.0 nXL.nXmX1.e ..1. . .[ | _ ) / / ] ^ / ( ] _ ` ,. .,.,.| { nXq ] ` ,.] 0 ] ] bX_ vX",
"} }  .1.<.e ..1.X.e { [ mX .] ..<.<.| L...w nXL.L.L.L.e e 1...} ' [ } ) ` / ( ) ( 6 ) ,.<.| ,.<.<.1.1.{ w nX>._ _ ` ' ' <.q [ MX",
"1.1. .1.1.e ..1.e ....[ vX{ <...] [ | ..L.MXMXe L.e e e X.1.} { vX( ( / _ >./ _ ) :.:.` <.| <.<.<.1.<.$ $ nX_ _ ] ' ` ] [ } ' MX",
"1.1.1.1.1...X.1...1.,.{ $ ` ' 1.....1.1.e e L.e e L.e e 1.} >.[ ] _ _ 8 ( :._ } ] ` >._ ,.' [ ,. .[ [ vX$ q ` ,.,.,.] <.,.<.<.` ",
"1.1.X...1.X.1...| 1.,.<.` { [ [ L.q q ..cXX.e 1...e e ....[ ` ,.<.` ( 7 ' ` ( ` ] ( _ ) <...} | 1.[ ` ] $ ` ` ,._ [ ,.1. .[ <.` ",
"1.X.1.L.X.1.X.L.w } ,.[ ] '  .| ] MXMXL.X.1...e e e e 1...nX_ _ >._ ;.( ' <._ ` >._ >.,.,.<.{ nX1.| } ,.` } ` ` ,.1.[ [ [ ' <.| ",
"1.X.1...X.1.X.L.| mX[ [  .` ` ' <...e L.X.1...e e L.| 1.} } ' ( >.] ) _ { <.` ] ,.>.[ <.[ >.[ q | w | ` $ ` { ' ,.1.[ <.<.[ [ w ",
"1.1.1.X.1.1.1.X.<.{ [ ,.] ,.' | X.e o.e e X.1.1.e e | } ,.>.) 5 6 _ ` [ ) _ ' ,. .,.[ [ ,.>.>.1...| 1.1.} ` ` ,.[ [ ,.<.1.{ MX} ",
"X.X.X.X.1.1.X.1...<.} ' { ,...1.1.e X.cXe 1.1.....w ..1.' ] [ ` ` ) ,.>.( ` <.,.] <.,.>.[ { { | 1.} | [ ` >._ ` { ' } <.,.1...L.",
"1.X.1.X.1.1.L.| { ,.,.[ ] >.<.<.[ ..<.X.e L.| | 1.} <.<.>.,./ / _ ` ' ,.bX] <. .[ 1.] ` ` vXmX} <.<.1.0 [ ,.` } [ } <.<.1.X.e e ",
"1.X.1.X.1.1.| w q ,.[ <.,.,.<.<.' { 1.e e L.| L.1.} ,.[ ] ,./ ( [ _ ( ` ] <.<.{ ..1.1.{ ` $ mX .1.1.1.....[ _ ] ,.X.1.1.1...e e ",
"e ..1.X.1.1...mX[ 1.[ } ` [ [ [ [ ..L.L.X.1.1.X.| mX} vX] ,.>.` ] ` } ' <.<.<.<.[ ' ` ` <.[ [ X.X.X.X.1.| <.,.>. .1...1.X.X.1.X.",
"e e X.1.X.X.1.| ,...<.` `  .} ,. .1...X.1.X.1.1.| { ,.` { <.] >.] >.[ | 1.1.,.1.[ <.1.] 1.1.1.1.1.1.e ..[ ] ,.] L...[ [ 1.1.X.1.",
"L.e e X.1...| } ] { '  .,.,.<.<.1.1.1.1...e e e mXmX[ ] _ <.>.] _ ` [  .1. .<.| [ [ 1.....} ..1.X.e L.e 1.<...1.vX' L.nX} 1.X.X.",
"L.e e e 1.e nX} bX$ [ <.>.` 1.<.1.1.1.1...e e e | 0 ] ,.] <.>.,.` ] <.<.1. .1.{ 1.1.} e e } ..1.X.e L.e 1.<.[ 1.'  .{ nX} 1.o.cX",
"1.e e e L.w bX` MXq { ) _ ` | 1. .e X.1.X.1.X.e <.nXvX] ,.] ,.<.` [ 1...1.X.1.X.1. .1.X.1.| e X.1.1.X.w { [ { <. .} 1.1.1...X.e ",
"e e e L...q 8 } ' 7 ( _ vX] | X.1.X.e X.X...cXcXq { [ >.<.<.[ ] ,.<.| 1.1.X.X.1.<.1.X.L.X...1.1.1.<.1. .e e w  .1.1.X.1.X.1.1.X.",
"e e L.| 1.$ 7 [ [ _ )  .] mX} 1.1.1.X.<.<.<.e L...<.[ ` ` ' ` [ [ ..X.1.X.1...X.1.1.X.X.1.X.X.X.X.1.1.1.X.o. .} mXmXw L.L.L.X.1.",
"e e L...1.8 q 8 / _ | <.] nX<.<...1.X.,.<.X.e L.....L.| ,.[ <.,.[ e o.1.X.1...X.1.1.1.X.1...1.......1.X.1.X.1.1...L.L...L.w e 1.",
"q q $ 8 bX$ MXq 8 7 7 nX7 8 8 $ 0 bXe 6 e MXL.w 0 nXmXnX$ vX8 8 8 e o.<.mX1.1.1.7 0 e w 0 vXL.vX$ nXL.0 bX$ 8 vX$ $ bXnXnXw e mX",
"$ vXbX8 7 8 $ $ bX$ 0 0 $ 7 6 6 6 5 5 7 bXbXvXq vX7 6 7 $ 8 6 5 5 4 5 8 0 nXnXnXvX$ 8 3 < 3 8 $ 8 $ bX5 3 6 6 2 < 1 5 $ q q 0 0 ",
"nXvX6 3 3 3 3 5 7 $ nX$ 7 6 4 5 6 4 3 4 6 5 6 $ 6 3 2 4 bX8 4 3 2 2 3 5 6 8 0 q 8 5 8 $ 8 bX0 $ 5 6 7 6 7 bX7 6 6 6 6 $ q bX6 $ "
};
