/* XPM */
static char *_732caf3e4654158b85a9f2750eeae1d4V8mSMuVpJdYv2e7[] = {
/* columns rows colors chars-per-pixel */
"64 64 226 2 ",
"   c #040204",
".  c #090709",
"X  c #0C0A0B",
"o  c #0B0706",
"O  c #130D0C",
"+  c #190A04",
"@  c #15110E",
"#  c #1B110D",
"$  c #0E0E11",
"%  c #0E1116",
"&  c #0E1118",
"*  c #141314",
"=  c #1A1513",
"-  c #1D1916",
";  c #15161A",
":  c #16191D",
">  c #1B1A1C",
",  c #19171A",
"<  c #130E11",
"1  c #220D06",
"2  c #25120B",
"3  c #2B140C",
"4  c #2B190F",
"5  c #27190F",
"6  c #341A0F",
"7  c #33180E",
"8  c #231711",
"9  c #231A15",
"0  c #2B1C14",
"q  c #231D1B",
"w  c #2A1E19",
"e  c #281710",
"r  c #341C12",
"t  c #391E12",
"y  c #301710",
"u  c #2D2016",
"i  c #25211E",
"p  c #2C221B",
"a  c #342116",
"s  c #3C2215",
"d  c #34231A",
"f  c #3C251A",
"g  c #3D291D",
"h  c #36281E",
"j  c #1C1E22",
"k  c #171B23",
"l  c #211F22",
"z  c #1E2124",
"x  c #1E222B",
"c  c #242323",
"v  c #2A2523",
"b  c #2C2926",
"n  c #24252A",
"m  c #29262A",
"M  c #2C2A2B",
"N  c #26282D",
"B  c #332623",
"V  c #332A25",
"C  c #3C2C24",
"Z  c #332E2B",
"A  c #3B2E2B",
"S  c #34312D",
"D  c #3C312C",
"F  c #2C2C32",
"G  c #252830",
"H  c #352F30",
"J  c #2E3135",
"K  c #353232",
"L  c #3B3532",
"P  c #3C3A35",
"I  c #3D3C3A",
"U  c #36343B",
"Y  c #402316",
"T  c #42261A",
"R  c #432A1D",
"E  c #4B2E1D",
"W  c #4D301E",
"Q  c #442D23",
"!  c #492D21",
"~  c #452E29",
"^  c #443024",
"/  c #4C3224",
"(  c #43332C",
")  c #4B362B",
"_  c #4C392C",
"`  c #49392C",
"'  c #523624",
"]  c #52352C",
"[  c #543A2A",
"{  c #5A3D2C",
"}  c #543926",
"|  c #433532",
" . c #4B3732",
".. c #433B35",
"X. c #4C3B34",
"o. c #433D3A",
"O. c #4C3E3A",
"+. c #533D32",
"@. c #5B3D33",
"#. c #573A35",
"$. c #633D36",
"%. c #3F413B",
"&. c #43423D",
"*. c #4D413C",
"=. c #4B4238",
"-. c #544135",
";. c #5D4334",
":. c #54443C",
">. c #5B453C",
",. c #5C4B3E",
"<. c #54483E",
"1. c #5D412D",
"2. c #64443A",
"3. c #6A433B",
"4. c #654A3D",
"5. c #664537",
"6. c #3A3A41",
"7. c #463D41",
"8. c #3F4242",
"9. c #454641",
"0. c #4A4541",
"q. c #474843",
"w. c #4C4B45",
"e. c #4C4E4A",
"r. c #474649",
"t. c #534C45",
"y. c #5B4B43",
"u. c #524E4A",
"i. c #574845",
"p. c #4E514A",
"a. c #4F5146",
"s. c #525247",
"d. c #53534B",
"f. c #5A544B",
"g. c #5B564B",
"h. c #545551",
"j. c #5A5652",
"k. c #565954",
"l. c #5B5B55",
"z. c #575C58",
"x. c #5C5E59",
"c. c #545358",
"v. c #664C43",
"b. c #6B4D43",
"n. c #694C47",
"m. c #714A42",
"M. c #61554C",
"N. c #6D524B",
"B. c #6B5A4C",
"V. c #645448",
"C. c #72554D",
"Z. c #73554A",
"A. c #635D55",
"S. c #6C5B55",
"D. c #635E59",
"F. c #6C5D59",
"G. c #6D5652",
"H. c #735651",
"J. c #735B54",
"K. c #795D56",
"L. c #735D59",
"P. c #7B5F59",
"I. c #5D625B",
"U. c #5C6057",
"Y. c #64635C",
"T. c #6A645E",
"R. c #686358",
"E. c #75625A",
"W. c #7C635A",
"Q. c #776559",
"!. c #5E6360",
"~. c #656561",
"^. c #6A6662",
"/. c #656964",
"(. c #6B6A65",
"). c #666B68",
"_. c #6B6D6A",
"`. c #726E6A",
"'. c #736965",
"]. c #6D716D",
"[. c #74726C",
"{. c #7A756E",
"}. c #747572",
"|. c #797772",
" X c #747975",
".X c #7C7A75",
"XX c #7B7E7B",
"oX c #777A78",
"OX c #6D7170",
"+X c #817E79",
"@X c #867E7A",
"#X c #836D60",
"$X c #80685C",
"%X c #7D817E",
"&X c #83827D",
"*X c #89827E",
"=X c #7F8481",
"-X c #828582",
";X c #888782",
":X c #858985",
">X c #8A8A85",
",X c #8A8D8A",
"<X c #878B89",
"1X c #918E89",
"2X c #8D918D",
"3X c #93938E",
"4X c #9A948E",
"5X c #8E9291",
"6X c #949692",
"7X c #9B9A94",
"8X c #9B9E9B",
"9X c #979995",
"0X c #A19793",
"qX c #A2A59F",
"wX c #A7AAA5",
"eX c #B1B3AE",
"rX c #BABAB6",
"tX c #C2C2BE",
"yX c #C8C8C4",
"uX c #D4D6D2",
"iX c #DEDEE0",
"pX c #FFFFFF",
"aX c #FEFEFD",
"sX c #F8F8F8",
"dX c #F5F7F5",
"fX c #EBEAE9",
/* pixels */
"[.{.{..X&X+X{.&X*X*X3X3X3X4X*XuX3X~._.3XyXwXwX9XtXaXaXaXaXaXaXaXaXfX,X-X=X<X<X>X=X9X5X9X5X8X9X8X=X8X=X=X=X=X).I.)./.Y.I.U.D.(. X",
"`.[.|..X{.+X&X&X*X1X3X6X2X7X*XtXwX~._.&XyXeXwX8XwXdXaXaXaXaXaXaXaXdX6X-X-X:X-X<X5X=X=X5X=X9X8X8XqX=X8X=X=X=X].I.).I.Y.U.x.D.^.}.",
"[.[.{..X+X+X%X&X*X,X2X3X2X9X6XwXyX(.(.}.rXtXwXqX8XfXaXaXaXaXaXsXaXsX8X=X,X,X,X:X=X=X=X=X9XqX9XqXwX=X=X=X=X=X).z._./.R.R.l.l.~._.",
"{.[.{..X+X+X&X*X,X*X2X3X3X3X9X6XuXOX(.(.wXtXwXwX9XuXaXaXaXaXaXsXaXaXwXXX}.r.~.<X%X%X%X%X=X=X=XqX=XqX=X=X=X=X].z./.I.U.U.l.l.^.(.",
"`.[.[.{.&X&X&X*X2X*X*X3X3X3XqX&XuX-XY.).>XyXwXwX6XyXaXfXyXrXrXyXiXaXyX>Xu.H U D.%XOX%X%X%X=X,X2X=X=X=X=X=X=X).k.).D.D.D.l.j.Y.~.",
"`.`.`.[..X&X[.[.*X*X2X2X3X3XqX*XrX8Xh.D._.yXrXeXqXwX;Xi.i.7.c.7.7.~.oX,X~.6.U 6.].OXOXOX%X%X:X,XqX=X=X=X=X=X%Xz.~.~.x.x.l.j.D.(.",
"'.(.T.R.'.|.[.7XqX&X*X2X7X3X3X2XwXeX0.M.A.{.T.'.f...A i.v.f.j.7.6.G G 6.c.6.m m k.%X].].).%X%X%X=X=X=X=X=X%X%Xz.~.Y.x.l.j.j.x.~.",
"T.T.R.U.R.[._.qXeX&X[.2X3X3X3X7X,XyXf.i.O. .( ( | ..O.i.y.i.7.7.6.G G l F 6.U n %.].).)./._.%X%X=X=X=X=X=X%X).p.~.x.x.x.j.j.l.~.",
"R.A.M.A.l.^.oX}.,X&X^.>X4X7X3X7X1X0XM.i.i.>.y.i.#.O.X.i.i.O.7.6.6.x k x k G G x F ).OXOX)._. X%XoX X X X X X}.h.x.Y.l.l.j.h.l.D.",
"A.A.l.l.f.Y._.9.%X2X[.^.;X@X4X4X*XO.O.#.X.| O.#.:.:.#.:.7.#.7.6.6.k k k x x ; k x r. X).].).].].OX).)._.OX].[.k.x.I.l.x.j.h.j.x.",
"A.A.g.g.f.u.h.&.(.2X[.D.'.@X1X0Xf.| | L A Z L ( X.#.X.#.v.#.o.U 6.G k k k k j k ; M r.!.).)._._.].)./.).).)._.h.x.Y.k.j.j.d.l.l.",
"g.f.M.l.f.u.u.o.d.%XU.R.'.0X4XE.| O.H M n m Z Z A O.O.+.:.7.7.7.G k & k k J 6.F j M J h.OX_.OX].)././.!././._.k.j.x.x.h.h.j.h.l.",
"S.F.f.y.s.t.(.~.j.h.H 7.F.'.`.O.| H m k & l F H Z ..O.X. .o.7.7.G k & k k 6.G n k c M I r.8.k.).).).I.I.!.~.~.k.h.x.l.h.h.j.d.j.",
"O.X.A V h b ~._.x.r.0.j.j.A.i.| ( m ; & & , m m H O.O...U | | U F j k k k ; ; ; ; : > z > % z I.].!.!.!.!.!.~.c.p.x.l.l.d.d.h.j.",
"8 0 p v D L 0.0.o.0.| Z B 0.#. .v > & $ & ; j l m P L | | | | H F m l ; & : k ; ; ; j , * * - p._.!.I.I.!.x.!.k.e.x.k.h.h.h.d.j.",
"9 p Z L u.d.d.w.u.I v q w O.i.A > , k k ; ; % & j m U H L L U L F l n j : : ; k k : q , * - v d.).!.I.I.x.x.x.k.e.x.h.j.d.u.s.f.",
"w.s.k.a.g.d.d.s.w.&.S i 9 =.y.w O $ ; , & & ; < ; n M M H K L L S b z z z k : : j > i > O * S Y./.!.I.z.z.z.z.z.8.!.k.h.d.u.s.d.",
"d.s.d.a.a.g.f.s.s.&...v 8 <.y.2 . j F F l & ; & j n n m M H | L L L i z z z z : > - b p O * K I.!.!.z.z.z.z.z.z.8.U.k.k.p.p.u.d.",
"p.d.d.d.p.g.f.f.s.t.P v p <.y.# = l U l l ; & ; c n n n N M H L D S Z N c c n z : = A B @ @ e.~.!.!.z.z.z.z.z.z.q.k.k.d.d.u.u.d.",
"p.p.p.d.w.d.f.d.s.u.q.V p -.<.0 l H , , l ; & ; c n c n n M M Z S b v N N c n c j * C ` = , U./.!.z.z.z.k.k.k.k.q.k.k.p.d.u.u.u.",
"d.p.d.d.p.s.d.f.s.s.s.P p ` -.h l n ; < k & j ; j c n n c N N S c j > q j z j n M - V ..u u g.T.I.z.k.k.k.k.z.z.9.d.k.d.p.e.u.u.",
"d.p.d.d.d.a.g.d.g.s.s.&.S D ..h , l < ; ; , , , j i c c z z M z z q , > : > > ; > c p ` C d =.R.x.z.k.k.k.k.h.z.9.p.h.s.e.e.w.w.",
"d.d.d.d.d.p.f.d.g.s.s.w.V S ( V < , , , , j j ; > z j j z z z > : : * * * ; > > , , q V ` a =.U.Y.h.h.h.c.h.c.k.9.e.j.p.e.e.w.u.",
"d.d.d.d.d.s.s.g.s.f.f.w.p B D u q v > * l q , , > j > j z z > > * * * ; ; * > n c > , q h f u B.Y.k.h.h.h.h.p.k.q.q.d.e.e.w.0.t.",
"d.d.d.d.d.d.a.g.g.g.g.<.q i C p w v l q = > j j > j j j j > ; ; ; ; > > * - N v i > z q u D h =.A.j.h.c.h.c.p.h.r.q.k.e.w.w.q.w.",
"p.d.d.d.p.d.a.d.g.a.a.%.i p C u V A l 9 * , > > > > > , : > : > ; j j N i N M M z > j z p i d =.g.f.e.e.e.p.p.c.w.8.p.w.w.q.0.t.",
"d.a.d.d.d.k.a.a.g.g.<.S i i C d C X.~ w = = , , : > , * ; * j z : : b b b b b M M z > j b i u C -.s.d.e.e.e.e.p.w.%.p.e.q.q.0.q.",
"d.d.d.d.p.d.p.a.g.g.%.i q 5 h g ! -.) V = = > > > * ; * ; > z N : - i v n i i b b i > > z i - p ` ,.h.p.e.p.e.p.w.%.p.e.q.q.0.0.",
"a.d.d.p.d.a.d.<.d.U.%.@ u 5 4 E ) ;.-.C i - > , > * * * ; M N x , * n b b - - i i * $ X X c i u ^ X.<.w.w.e.e.e.w.I p.w.q.q.&.*.",
"d.d.d.d.d.d.k.<.,.a.%.V S V 5 f } { ;.( V - > * : % * * * N %.N % , c i i q = - - X     X i c i ^ g ` <.q.e.r.e.w.I e.w.q.&.&.0.",
"k.p.p.p.a.a.d.a.&.a.R.(.U.g.=.4 [ [ ;.-.D > * * : @ : ; $ : %.k X X * @ - = = = *     . * K b p ( E ` <.w.w.q.e.w.P w.q.&.&.&.&.",
"d.d.d.d.a.d.a.a.d.%XR.U.U.V.,.f ] [ 5.-.p @ * % * $ > > * N J X .       O i = @ @   . * > K M B h f f _ =.q.e.r.q.P q.w.&.&.&.&.",
"U.a.a.a.a.a.%.%XU.U.R.U.U.,.V.` [ ' ;.-.# o . < * $ * , , i j   .         8 * o * q - * i P S Z d f t ^ X.=.&.q.w.P 8.q.&.&.&.&.",
"p.p.a.a.a.a.U.I.U.U./.g.a.s.V.` ' ' ! _ w < * > * * > @ > > > .         o = = o , i O @ c P &.L ( R t ! ^ =.&.q.q.P %.q.%.%.&.%.",
"p.a.a.a.k.U.I.I.U.d.U.a.,.g.V.} / [ ! ! Q < . * % * = > > * * X . . , * # = , o O o o , b P %.&.Q Q R Y R ^ &.&.q.P %.q.&.&.P ..",
"k.a.a.U.a.%XI.I.U.a.a.a.g.B.,.1.E ' } ] X.d = v * * > j c > > * . . * @ O O X o o X * > c S q.s.( f s R s h | &.&.P P %.P P &.P ",
"a.a.U.U.U.I.U.I.U.a.a.U.U.g.B.4.! W ' [ ,.:.D , , $ , c b j * > % X . . . X X X X . X O * Z 9.u.` R R ! Q f | &.%.P L %.P %...P ",
"U.%X%XU.U.I.z.p.a.a.a.I.R.R.B.4.' E T / ,.B.:.v @ q > q z c , @ < O * % < X * - O . X X * S L i. .s ! Y g Q D ..%.%.S %.P P P P ",
"%XI.p.z.U.z.p.k.U.I.U.U.R.R.B.4.{ E } [ Z.E.S.u.b > c j c b v c < X X < O . - v v l = = q B | :./ s R E s h D D P P S %.P P ..P ",
"p.I.U.U.z.p.k.U.U.U.U.U.R.R.R.B.5.{ [ [ $XE.S.M.B = i b M q c m , X . X X - l O # < v L | ` X.Q f Y s s r u h D P P Z %.P L P P ",
"p.U.I.z.p.k.U.U.I.I./.I.I.T.R.B.2.} E 4.#XJ.J.S.7.V w w L Z H H c @ o X , q O # w B #. .) v.Q t Y s 6 4 a u d C S D S P P L S %.",
"U.k.p.p.k.k.p.z.U.U.I.!.I.R.Q.B.1.' ' b.$XQ.E.H.n.| | l V O.L H q = = i 9 8 B | O. .~ ] ;.2.Y Y s 6 s a 0 u p p B S c P L S P S ",
"z.a.a.k.p.k.U.U.U.I.I.).R.(.R.,.1.' } 1.W.W.J.B.n.n.~ ~ | A | B B A ~ ~ ~  .#.] ~ / ] @.b.1.t t t t 4 u 4 0 0 0 u p i S S S S S ",
"p.U.U.U.U.U.p.%XY.Y./.Y._.T.R.,.1.{ ' W $XQ.J.C.H.n.3.7. .(  .~ ~ Q ~ ] ] ] #.#.$.@.2.2.m.E t 6 s s 2 5 u 5 4 0 u p i S S S S P ",
"U.I.U.U.%Xz.%Xa.I./.T.Y.R.R.M.-.} 1.W / W.E.J.H.H.m.n.n.#.#.#.] ~ ] $.$.$.$.$.$.2.2.4.4.@.t 6 s r # + 5 u u u u u u u i S S S S ",
"U.U.U.I.p.z.%XU.T.~.T.T.Y.A.g.-.} 5.W [ W.E.W.B.H.C.n.n.2.n.m.#.3.3.3.3.3.$.$.$.2.2.2.2.T s f h + o O 5 d h u u u u i i Z V V S ",
"U.U.U.U.U.U.a.U.~.T.R.R.Y.A.g.' } 5.W 5.W.E.J.H.H.H.H.N.N.n.n.m.3.3.m.$.3.$.v.3.4.4.;.R Y E C e + O + # 5 d d a a u u i b b V S ",
"I.I.U.p.%XU.k.%XY.Y.R.Y.D.A.,.W 1.1.W J.W.J.K.W.H.H.H.H.H.H.n.m.m.m.m.m.3.3.v.m.4.] Y t T Y 4 8 @ 9 # 8 5 u u a a d u i i b b V ",
"/.I.I./.Y.~.Y.~.T.Y.Y.l.R.g.>._ / W 4.W.Q.J.$X$Xm.K.C.K.H.N.n.H.Z.Z.m.m.4.;.2.>.R s s s R a B q o 5 u 5 w r d d a d u q i b v b ",
"I././.I.~.~.^.^.R.Y.A.D.R.g.-.' / E H.Q.J.J.K.K.K.K.H.H.H.N.N.n.m.m.Z.4.4.2.#.R s E s r Y h 8 O # # w e 4 4 4 4 0 a u - i i i b ",
"U./.Y./.Y.Y.T.~.Y.T.D.D.A.g.,.-.^ _ Q.E.J.Z.$XK.J.J.K.K.H.G.N.G.Z.Z.b.4.b.[ R t R R R R ^ a 8 O O 9 i 4 u a a s g g h - q i i V ",
"U.T.(.R.R.^.Y.D.Y.D.D.D.A.g.-._ / 4.W.J.J.K.W.K.J.J.J.J.H.G.G.N.C.Z.v.b.) s R g f Q s g / a e 9 0 C u a f f s f R g p - - i i i ",
"d.T.(.Y.T.^.Y.R.Y.Y.R.R.A.,.` _ ^ v.E.J.H.K.W.K.L.H.L.L.G.G.G.N.H.C.b.+.6 r r a h 0 3 2 r r e e w e 5 4 4 r s s f g u @ - > i i ",
"d.U.(.Y.T.D.Y.Y.D.R.R.l.V.=.-.+.! V.Q.J.H.P.W.J.L.J.L.L.L.L.G.G.H.H.4.R Q a r s f 3 2 3 t t B y + 2 4 4 6 s Y Y g h i @ - - i i ",
"j.j.^.^.D.R.D.D.Y.D.R.l.M.y.v.-.` B.J.J.J.W.P.J.L.L.F.L.L.L.H.L.H.H.) R R R R f f 6 6 t 6 t t 6 r 2 1 a 6 6 R R g a u * * - - i ",
"j.d.Y.R.Y.R.Y.D.R.l.M.U.R.g.,.` / E.J.J.H.W.J.P.L.L.L.L.L.G.L.H.H.J./ s s Y s t t s Y Y Y 6 Y t 4 2 1 6 s s Y T R f u = = - - i ",
"_.u.j.^.T.D.^.Y.D.Y.D.A.A.M.X.R -.Q.H.H.J.Q.J.Q.L.F.L.F.L.G.L.L.K.J.^ s g s a E ! Y T R Y t t t 6 3 3 t s s T R g a u = @ = - i ",
"&Xe.j.Y.Y.Y.^.Y.R.R.D.A.R.M.,.-.y.E.S.J.Q.W.L.E.L.L.L.L.L.G.H.L.H.H.! R R Y R f R R t T t t t 7 6 3 3 6 6 s f R g 5 9 = @ = - - ",
"5Xc.d.l.^.^.T.T.Y.Y.D.D.A.g.g._ M.E.F.S.J.E.G.E.F.L.L.L.L.L.L.H.J.N.! ^ Y ! R s R ! t t t Y t 3 2 3 6 6 Y Y R E g 5 5 - @ = > q ",
"6X_.u.j.(.(.T.^.Y.Y.A.D.A.D.y.:.G.G.f.S.R.E.T.T.F.F.L.F.F.F.L.F.J.n.! ! Y ! T Y T ! t t 7 t t 3 1 3 3 6 s E s f 6 2 5 - @ = = > ",
"5XoXc.h.D.(.(.^.T.Y.R.F.D.A.M.D.^.A.f.f.D.`.^.|.)..X^.`.^.F.F.G.S.v.R R f R Y Y Y Y t t t 3 y 3 1 1 3 6 T T T r 4 5 5 = O = = - ",
",X=X^.u.j.(.(.(.R.D.D.A.A.D.l.^.D.u.u.j.}.D.oX^.OX(.'.`.F.|.'.'.F.:.t R t t t T Q t t t y 3 3 3 2 2 7 s s s T s 4 0 0 - O = = - ",
"<X=XoXc.d.^.(.~.D.R.D.D.A.A.A.~.A.i.c.D.+XD.*X).-X'.=X~.|.~.'.F.A.F.f t 3 3 7 t t t t r y 2 1 + 1 3 7 6 s s s a 6 0 - - @ = = - ",
"<XXX&XD.u.D.`.R.D.Y.D.l.A.A.x.F.j.i.i.!.`.F.oX'.oXOX}.OX|.OX`.A.A.A. .7 3 3 7 7 3 3 3 1 2 + + + 2 3 t 6 s s 6 6 a a u u @ = = - "
};
