/* XPM */
static char *result[] = {
/* columns rows colors chars-per-pixel */
"64 64 212 2 ",
"   c #73544D",
".  c #79514E",
"X  c #74594B",
"o  c #755751",
"O  c #7C5250",
"+  c #765953",
"@  c #795B55",
"#  c #7C5E59",
"$  c #74514C",
"%  c #7C674A",
"&  c #7E7248",
"*  c #7E625C",
"=  c #7B6155",
"-  c #7F6660",
";  c #845253",
":  c #8A5355",
">  c #875A5A",
",  c #925559",
"<  c #9B545D",
"1  c #95595E",
"2  c #A3555F",
"3  c #857749",
"4  c #82635E",
"5  c #9D5A61",
"6  c #A55561",
"7  c #AD5D69",
"8  c #A95A65",
"9  c #B35666",
"0  c #B15C69",
"q  c #BB5B6C",
"w  c #836662",
"e  c #8B6463",
"r  c #846A65",
"t  c #866D68",
"y  c #8D6D69",
"u  c #8B6A66",
"i  c #936868",
"p  c #8B726E",
"a  c #8D7A6A",
"s  c #92726F",
"d  c #907C6D",
"f  c #9D6F71",
"g  c #8D7572",
"h  c #8F7973",
"j  c #957572",
"k  c #957A76",
"l  c #997A76",
"z  c #947E7A",
"x  c #9C7E7B",
"c  c #9B7474",
"v  c #AB646D",
"b  c #A7666D",
"n  c #A67879",
"m  c #C3596D",
"M  c #C9586E",
"N  c #C4576C",
"B  c #CC5B72",
"V  c #C05E71",
"C  c #D45C75",
"Z  c #D75E78",
"A  c #DC5E79",
"S  c #D95B77",
"D  c #CA6A7D",
"F  c #D3647C",
"G  c #DB637C",
"H  c #C6717F",
"J  c #E0607D",
"K  c #868B3F",
"L  c #8E9E3D",
"P  c #8C973F",
"I  c #8FA03E",
"U  c #90A23E",
"Y  c #858741",
"T  c #878C41",
"R  c #8D854B",
"E  c #979449",
"W  c #918B53",
"Q  c #9AAC40",
"!  c #9FB441",
"~  c #A7BB45",
"^  c #AAAF56",
"/  c #96817D",
"(  c #9B827E",
")  c #90816A",
"_  c #A19B67",
"`  c #A2817F",
"'  c #A8A760",
"]  c #ACC345",
"[  c #B7CA4B",
"{  c #BDD74B",
"}  c #C6E54C",
"|  c #D1F54F",
" . c #D3F650",
".. c #CFF24E",
"X. c #C0D74C",
"o. c #A87E82",
"O. c #B97882",
"+. c #DE6580",
"@. c #DC6B84",
"#. c #D66A80",
"$. c #CD7586",
"%. c #CC7989",
"&. c #DD738A",
"*. c #D6788A",
"=. c #DD7D92",
"-. c #CA6F80",
";. c #E16B85",
":. c #E16783",
">. c #E2738B",
",. c #E27C93",
"<. c #E07790",
"1. c #998581",
"2. c #9E8B87",
"3. c #9D8B87",
"4. c #A38481",
"5. c #AA8485",
"6. c #A78885",
"7. c #A88986",
"8. c #A28E8B",
"9. c #AB8C8A",
"0. c #B3858C",
"q. c #B38C8D",
"w. c #A4938E",
"e. c #AC918E",
"r. c #A99F80",
"t. c #B1918F",
"y. c #B88C91",
"u. c #AC9693",
"i. c #AC9995",
"p. c #AE9E9B",
"a. c #A69591",
"s. c #B49492",
"d. c #BD9D9C",
"f. c #B69998",
"g. c #AFA19E",
"h. c #BFA19F",
"j. c #B1A499",
"k. c #B4A5A2",
"l. c #B5A8A5",
"z. c #BAADAB",
"x. c #B8A9A6",
"c. c #BDB1AE",
"v. c #BAB1A4",
"b. c #BFB3B1",
"n. c #DB8698",
"m. c #C2979C",
"M. c #CF909A",
"N. c #E38499",
"B. c #E18B9D",
"V. c #E28094",
"C. c #C1A09F",
"Z. c #D89AA6",
"A. c #CA9BA4",
"S. c #E18BA1",
"D. c #E88DA0",
"F. c #E29CAE",
"G. c #E694A5",
"H. c #E49EB0",
"J. c #C6A6A5",
"K. c #CBABAB",
"L. c #CAA5A8",
"P. c #D0ADAE",
"I. c #D7A4AB",
"U. c #DCA4B3",
"Y. c #D4ACB1",
"T. c #C3B5B4",
"R. c #C5BBB9",
"E. c #C8BFBD",
"W. c #C9B5B3",
"Q. c #D4B4B4",
"!. c #DCBBBC",
"~. c #D9B5B7",
"^. c #E2A5B5",
"/. c #EBA5B3",
"(. c #ECA9B6",
"). c #E3ABBA",
"_. c #ECADBA",
"`. c #E1ACB3",
"'. c #E4B3BE",
"]. c #EDB1BC",
"[. c #E1B8BE",
"{. c #C9C1BF",
"}. c #E7B3C0",
"|. c #E5BBC3",
" X c #EABBC4",
".X c #EAB7C4",
"XX c #F0B2C0",
"oX c #F1BDC5",
"OX c #CCC4C3",
"+X c #CFC9C7",
"@X c #D3CDCB",
"#X c #D4C9C8",
"$X c #D9D2D2",
"%X c #E4C3C5",
"&X c #ECC5CA",
"*X c #ECCACC",
"=X c #E8C4C9",
"-X c #F1C3CB",
";X c #F1C9CE",
":X c #EFCED1",
">X c #ECC6D0",
",X c #F2CDD1",
"<X c #E5D9DA",
"1X c #F4D1D4",
"2X c #F4DADE",
"3X c #E5E0DF",
"4X c #F5DBE2",
"5X c #EBE9E8",
"6X c #F6E9EC",
"7X c #FDF9FA",
"8X c #FDEFF3",
"9X c black",
/* pixels */
"9X9X9X9X9X9X9X9X9X9X9X9X9X9X9X9X9X9X9X9X9X9X9X9X9X9X9X9X9X9X9X9X9X9X9X9X9X9X9X9X9X9X9X9X9X9X9X9X9X9X9X9X9X9X9X9X9X9X9X9X9X9X9X9X",
"9X9X9X9X9X9X9X9X9X9X9X9X9X9X9X9X9X9X9X9X9X9X9X9X9X9X9X9X9X9X9X9X9X9X9X9X9X9X9X9X9X9X9X9X9X9X9X9X9X9X9X9X9X9X9X9X9X9X9X9X9X9X9X9X",
"9X9X9X9X9X9X9X9X9X9X9X9X9X9X9X9X9X9X9X9X9X9X9X9X9X9X9X9X9X9X9X9X9X9X9X9X9X9X9X9X9X9X9X9X9X9X9X9X9X9X9X9X9X9X9X9X9X9X9X9X9X9X9X9X",
"9X9X9X9X9X9X9X9X9X9X9X9X9X9X9X9X9X9X9X9X9X9X9X9X9X9X9X9X9XT.w w r - r - w - 8.9X9X9X9X9X9X9X9X9X9X9X9X9X9X9X9X9X9X9X9X9X9X9X9X9X",
"9X9X9X9X9X9X9X9X9X9X9X9X9X9X9X9X9X9X9X9X9X9X9X9X9X9X@Xl.l.i.9.7.7.7.7.7.7.7.u.l.k.R.9X9X9X9X9X9X9X9X9X9X9X9X9X9X9X9X9X9X9X9X9X9X",
"9X9X9X9X9X9X9X9X9X9X9X9X9X9X9X9X9X9X9X9X9X9X9X9X9X9Xk.@ @ 9.,X,X1X1X1X1X1X1XP.@ @ z 9X9X9X9X9X9X9X9X9X9X9X9X9X9X9X9X9X9X9X9X9X9X",
"9X9X9X9X9X9X9X9X9X9X9X9X9X9X9X9X9X9X9X9X9X9X9X9X9X/ e.!.!.[.}.}.}.}.}.}.}.}.[.!.!.J.p {.9X9X9X9X9X9X9X9X9X9X9X9X9X9X9X9X9X9X9X9X",
"9X9X9X9X9X9X9X9X9X9X9X9X9X9X9X9X9X9X9X9X9X9Xb.z.g.@ 7.&X-XY.0.0.0.O.0.0.0.Z.}.&X-X~.6.p.E.9X9X9X9X9X9X9X9X9X9X9X9X9X9X9X9X9X9X9X",
"9X9X9X9X9X9X9X9X9X9X9X9X9X9X9X9X9X9X9X9X9X@Xr @ > @ ` U.U.0.@ @ # # # + * m.I.U.^.}.:Xx p 9X9X9X9X9X9X9X9X9X9X9X9X9X9X9X9X9X9X9X",
"9X9X9X9X9X9X9X9X9X9X9X9X9X9X9X9X9X9X9Xz p z P.~.Q.~.s.4 4 6.~.~.~.~.E.~.Q.l 4 e m.XX,Xx p 9X9X9X9X9X9X9X9X9X9X9X9X9X9X9X9X9X9X9X",
"9X9X9X9X9X9X9X9X9X9X9X9X9X9X9X9X9X@Xz.1.x 9. X~.J.J.s.( ` y.(.(.(.(.(.(./.q.x ` 9.A.:Xd.8.c.c.{.9X9X9X9X9X9X9X9X9X9X9X9X9X9X9X9X",
"9X9X9X9X9X9X9X9X9X9X9X9X9X9X9X9X9Xw.y =X*X=X`.5.+ X 9.*X;XF.S S Z Z S S G _.;X1Xx c =X,XQ.@ X p 9X9X9X9X9X9X9X9X9X9X9X9X9X9X9X9X",
"9X9X9X9X9X9X9X9X9X9X9X9X9X9X9X9Xz f.~.}.y.y e e.J.= # s a 4 , : : : : : : -.G.1X!.J.j Q.~.@ 9.K.k R.9X9X9X9X9X9X9X9X9X9X9X9X9X9X",
"9X9X9X9X9X9X9X9X9X9X9X9X9X9X@Xz.x L. Xm.9.1.1.K.[.4 4 k k l l l k k l l l 0 H (.,XP.  7.C.x Q.[.+ l.9X9X9X9X9X9X9X9X9X9X9X9X9X9X",
"9X9X9X9X9X9X9X9X9X9X9X9X9X9X2.y =X|.A.* b.7X7X:XZ.4 9.;X;X*X;X;X:X*X:X,X*Xj , A (.Q.@   p %X1X!.# l.9X9X9X9X9X9X9X9X9X9X9X9X9X9X",
"9X9X9X9X9X9X9X9X9X9X9X9X9Xz d.Q.}.0.x OX>X XD.O.j J.Z.,.V.%.d d j c %.V.V.I.f., $.n.K.s > =.H.'.P.e.8.9X9X9X9X9X9X9X9X9X9X9X9X9X",
"9X9X9X9X9X9X9X9X9X9X{.E.z.l K.-X).c t 6X>XS.q b ` `.N.S N v s , : , 9 M G Z.C.d 7 %.>Xo.; B S.}.1X7.- 9X9X9X9X9X9X9X9X9X9X9X9X9X",
"9X9X9X9X9X9X9X9X9XE.* + k =X.X^.^.c g 6X(.B O s.&X>.A C : ` *X>.G B : < B , l %Xj g *Xz ; #.S.}.1X7.r 9X9X9X9X9X9X9X9X9X9X9X9X9X",
"9X9X9X9X9X9X9X9Xg.8.K.J.P.}.S.$.c k.#X&XD.B . s.;XG A B ; ` 1XoXM.: . . , 2 n.*Xj p >Xo.; S S.}.1X7.r 9X9X9X9X9X9X9X9X9X9X9X9X9X",
"9X9X9X9X9X9X9X9Xu.1.Q.*X;X).,.N . T.6XH.$.q s s.I.G C q s 9.Q.Q.q.: : > s *.n.P.f n  Xo.; C S.}.2X9.r 9X9X9X9X9X9X9X9X9X9X9X9X9X",
"9X9X9X9X9X9X9X9X9XR.* K.;X).,.m . h.-X;.6 4 |.t.> B 2 4 !.m.@ @ 2 G C V.&X;XK.> q ,.*Xx : C ,..X7Xi.r 9X9X9X9X9X9X9X9X9X9X9X9X9X",
"9X9X9X9X9X9X9X9X9X{.o K.,X).,.M O h.oXG < 4 =XZ.0 5 : 4 {.Z.9 9 %.(.(.A.` ( n 0 n.I.` v q +.S..X7Xi.r 9X9X9X9X9X9X9X9X9X9X9X9X9X",
"9X9X9X9X9X9X9X9X9X+Xj C.!.).V.m O h.-X>.0 e K.G.F 1 . 4 %X(.>.B n.!.!.f.; ; 2 A ].Q.@ 9 +.@.H. X<X9.i E.9X9X9X9X9X9X9X9X9X9X9X9X",
"9X9X9X9X9X9X9X9X9X9X9X1.j *XN.m   h.;X).=.B @ s.oXG 2 4 [.1X&Xy $ @ X < C S S A ].Y.@ 9 @.^.4X3X* 7 B # k.9X9X9X9X9X9X9X9X9X9X9X",
"9X9X9X9X9X9X9X9X9X9X9X/ y *XN.M . h.,X).=.B . k.4X>.M 0 n 4.4.7 2 9 9 m G D.(./.y.n 0 $.H.4XT.9.8 n.Z.@ g.9X9X9X9X9X9X9X9X9X9X9X",
"9X9X9X9X9X9X9X9X9X9X9Xa.x ~.B.D > y.!.}.D.D , f.<XN.;.C , . . D >.>.>.>.>.I.{.~.c 1 @.H.>X<X5., F /.[.j p.9X9X9X9X9X9X9X9X9X9X9X",
"9X9X9X9X9X9X9X9X9X9X9X9XE.4 L.].F < s =X.XG.F 8 g <X_.S C 8 @ ~.-X;X;X;X-X) > > q @.U.4X$Xr 0 #.F.^.'.%Xe.p 9X9X9X9X9X9X9X9X9X9X",
"9X9X9X9X9X9X9X9X9X9X9X9X+X  J.oXG < r *X&XZ.8 2 7 u.P._.:.M 0 n 9.7.` t.7.v 9 2 Z.oX4XT.e.7 $.S.^. X|.q.i.c.9X9X9X9X9X9X9X9X9X9X",
"9X9X9X9X9X9X9X9X9X9X9X9X@Xp k.`.>.v i Q.[.I.@ v #., u.<XB.>.>.1 . ; ; ; : D G >.%X5X3X1.; S S.~.'.[.Q.p z.9X9X9X9X9X9X9X9X9X9X9X",
"9X9X9X9X9X9X9X9X9X9X9X9X9X9X2.j [.n.N 4 C.[.= q..X#.v p <X8X6X*.C B M F C (.;X;Xo.- - o ; S S.}.,Xq.p @X9X9X9X9X9X9X9X9X9X9X9X9X",
"9X9X9X9X9X9X9X9X9X9X9X9X9X9X1.u *XD.M . f.%X# s.;XS.-.8 f.k.l.).].].].].].m.t.e.v 6 6 ; > =.(.}.s.i.z.9X9X9X9X9X9X9X9X9X9X9X9X9X",
"9X9X9X9X9X9X9X9X9X9X9X9X9X9Xa.j !.D.D ; s.Q.# t.,X}.S.F : . > @X5X6X5X6X3X( . . V :.@.1 r U.&X!.@ l.9X9X9X9X9X9X9X9X9X9X9X9X9X9X",
"9X9X9X9X9X9X9X9X9X9X9X9X9X9X9XE.u m.(.G 8 @   s.:X}.^.F.F C B e r * - - r q C B S.).&Xc e U.&X!.@ l.9X9X9X9X9X9X9X9X9X9X9X9X9X9X",
"9X9X9X9X9X9X9X9X9X9X9X9X9X9X9X@X= C.;X/.n 2 2 n d.}.}.^.S.,.=.7 2 2 6 6 6 $.N.n._.~.f.5.y.}.J.f.i.@X9X9X9X9X9X9X9X9X9X9X9X9X9X9X",
"9X9X9X9X9X9X9X9X9X9X9X9X9X9X9X@Xt f.&X%XG.:.:.8 # #XoX).).).^.>.G G :.+.@.G.).).,XP.O y.}.,X4.r 9X9X9X9X9X9X9X9X9X9X9X9X9X9X9X9X",
"9X9X9X9X9X9X9X9X9X9X9X9X9X9X9X9X9Xw.4 4 m.-X-X0.> |.&X).).U.).^.^.F.F.F.H.^.).).&XQ.+ y.}.1X4.r 9X9X9X9X9X9X9X9X9X9X9X9X9X9X9X9X",
"9X9X9X9X9X9X9X9X9X9X9X9X9X9X9X9X9XR.w.w.i.d.f.i.a.f.P. X X.X`.).).).).).).}. X XJ.s.9.Y.'.d.u.k.9X9X9X9X9X9X9X9X9X9X9X9X9X9X9X9X",
"9X9X9X9X9X9X9X9X9X9X9X9X9X9X9X9X9X9X9X9Xg.@ @ l.9Xg 9.=X=X|.).).}.).).).}.|.*X=Xx k %X*XK.r b.9X9X9X9X9X9X9X9X9X9X9X9X9X9X9X9X9X",
"9X9X9X9X9X9X9X9X9X9X9X9X9X9X9X9X9X9X9X9X9X@X$X9X9X9Xg.u r s.,X,X,X,X,X,X*X4.w t c.T.y w / +X9X9X9X9X9X9X9X9X9X9X9X9X9X9X9X9X9X9X",
"9X9X9X9X9X9X9X9X9X9X9X9X9X9X9X9X9X9X9X9X9X9X9X9X9X9X{.3.2.f.m.k.m.h.h.h.h.u.3.3.9X9Xw.2.k.9X9X9X9X9X9X9X9X9X9X9X9X9X9X9X9X9X9X9X",
"9X9X9X9X9X9X9X9X9X9X9X9X9X9X9X9X9X9X9X9X9X9X9X9X9X9X9X9X9Xz.+ @ o   + + * OX9X9X9X9X9X9X9X9X9X9X9X9X9X9X9X9X9X9X9X9X9X9X9X9X9X9X",
"9X9X9X9X9X9X9X9X9X9X9X9X9X9X9X9X9X9X9X9X9X9X9X9X9X9X9X9X9X9X@X@Xp.+ c.@X@X9X9X9X9X9X9X9X9X9X9X9X9X9X9X9X9X9X9X9X9X9X9X9X9X9X9X9X",
"9X9X9X9X9X9X9X9X9X9X9X9X9X9X9X9X9X9X9X9X@Xb.b.T.b.b.@X9X9X9X9X9Xb.@ +X9X9X9X9X9X9X9X9X9X9X9X9X9X9X9X9X9X9X9X9X9X9X9X9X9X9X9X9X9X",
"9X9X9X9X9X9X9X9X9X9X9X9X9X9X9X9X9X9X9X9Xa.  X X X   i.9X9X9X9X9Xb.- OX9X9X9X9X9X9X9X9X9X9X9X9X9X9X9X9X9X9X9X9X9X9X9X9X9X9X9X9X9X",
"9X9X9X9X9X9X9X9X9X9X9X9X9X9X9X9X9X9X9Xo.R T T T K K W 1.9X9X9X9X9X{.2.g.9X9X9X9X9X9X9X9X9X9X9X9X9X9X9X9X9X9X9X9X9X9X9X9X9X9X9X9X",
"9X9X9X9X9X9X9X9X9X9X9X9X9X9X9X9X9X@Xv.W T Q I I I I K & x.@X9X9X9X9Xg / 9X9X9X9X9X9X9X9X9X9X9X9X9X9X9X9X9X9X9X9X9X9X9X9X9X9X9X9X",
"9X9X9X9X9X9X9X9X9X9X9X9X9X9X9X9X9Xw.& } ] I I I I I I P % w.9X9X9X9Xp / 9X9X9X9X9X9X9X9X9X9X9X9X9X9X9X9X9X9X9X9X9X9X9X9X9X9X9X9X",
"9X9X9X9X9X9X9X9X9X9X9X9X9X9X9X9X1.*   Y ~ } } ] I I I U [ ' 1.9X9X9Xg 1.9X9X9X9X9X9X9X9X9X9X9X9X9X9X9X9X9X9X9X9X9X9X9X9X9X9X9X9X",
"9X9X9X9X9X9X9X9X9X9X9X9X9X9X9X9X/ z z z ' [ [ ] ~ ~ ~ ~ [ ' z b.9X9Xp 1.9X9X9X{.E.OX{.{.@X9X9X9X9X9X9X9X9X9X9X9X9X9X9X9X9X9X9X9X",
"9X9X9X9X9X9X9X9X9X9X9X9X9X9X9X9X9X9X9X9Xi.  X ^ | | | } 3 w.9Xp w.9Xh / 9X9X{.X o o X   h 9X9X9X9X9X9X9X9X9X9X9X9X9X9X9X9X9X9X9X",
"9X9X9X9X9X9X9X9X9X9X9X9X9X9X9X9X9X9X9X9X$XR.E.r.R R R W v.$X9X+Xg.1.z.@X9Xg.) K Y Y K Y R / OX9X9X9X9X9X9X9X9X9X9X9X9X9X9X9X9X9X",
"9X9X9X9X9X9X9X9X9X9X9X9X9X9X9X9X9X9X9X9X9X9X9Xz.g g g / 9X9X9X9Xc.@ +X5X{.a & I I I I I L 3 j.@X9X9X9X9X9X9X9X9X9X9X9X9X9X9X9X9X",
"9X9X9X9X9X9X9X9X9X9X9X9X9X9X9X9X9X9X9X9X9X9X9X9X9X9X9X9X9X9X9X9Xc.@ +XR.* T E I I U U U ! } E p 9X9X9X9X9X9X9X9X9X9X9X9X9X9X9X9X",
"9X9X9X9X9X9X9X9X9X9X9X9X9X9X9X9X9X9X9X9X9X9X9X9X9X9X9X9X9X9X9X9Xc.o z _ ~ Q I I I U { } [ E % @ / OX9X9X9X9X9X9X9X9X9X9X9X9X9X9X",
"9X9X9X9X9X9X9X9X9X9X9X9X9X9X9X9X9X9X9X9X9X9X9X9X9X9X9X9X9X9X9X9Xl.g p _ { ~ ! ! ! ] { { ~ k p p p T.9X9X9X9X9X9X9X9X9X9X9X9X9X9X",
"9X9X9X9X9X9X9X9X9X9X9X9X9X9X9X9X9X9X9X9X9X9X9X9X9X9X9X9X9X9X9Xg 2.9X9Xz.% [ | ..| [ % X d 9X9X9X9X9X9X9X9X9X9X9X9X9X9X9X9X9X9X9X",
"9X9X9X9X9X9X9X9X9X9X9X9X9X9X9X9X9X9X9X9X9X9X9X9X9X9X9X9X9X9X9Xt 3.9X9X9Xz._ E E E _ l.z.R.9X9X9X9X9X9X9X9X9X9X9X9X9X9X9X9X9X9X9X",
"9X9X9X9X9X9X9X9X9X9X9X9X9X9X9X9X9X9X9X9X9X9X9X9X9X9X9X9X9X9X9Xt 2.9X9X9X9Xw.r r t 8.9X9X9X9X9X9X9X9X9X9X9X9X9X9X9X9X9X9X9X9X9X9X",
"9X9X9X9X9X9X9X9X9X9X9X9X9X9X9X9X9X9X9X9X9X9X9X9X9X9X9X9X9X9X9Xt 2.9X9X9X9X9X9X9X9X9X9X9X9X9X9X9X9X9X9X9X9X9X9X9X9X9X9X9X9X9X9X9X",
"9X9X9X9X9X9X9X9X9X9X9X9X9X9X9X9X9X9X9X9X9X9X9X9X9X9X9X9X9X9X9Xt 2.9X9X9X9X9X9X9X9X9X9X9X9X9X9X9X9X9X9X9X9X9X9X9X9X9X9X9X9X9X9X9X",
"9X9X9X9X9X9X9X9X9X9X9X9X9X9X9X9X9X9X9X9X9X9X9X9X9X9X9X9X9X9X9Xt 3.9X9X9X9X9X9X9X9X9X9X9X9X9X9X9X9X9X9X9X9X9X9X9X9X9X9X9X9X9X9X9X",
"9X9X9X9X9X9X9X9X9X9X9X9X9X9X9X9X9X9X9X9X9X9X9X9X9X9X9X9X9X9X9Xt 3.9X9X9X9X9X9X9X9X9X9X9X9X9X9X9X9X9X9X9X9X9X9X9X9X9X9X9X9X9X9X9X",
"9X9X9X9X9X9X9X9X9X9X9X9X9X9X9X9X9X9X9X9X9X9X9X9X9X9X9X9X9X9X9Xt 2.9X9X9X9X9X9X9X9X9X9X9X9X9X9X9X9X9X9X9X9X9X9X9X9X9X9X9X9X9X9X9X",
"9X9X9X9X9X9X9X9X9X9X9X9X9X9X9X9X9X9X9X9X9X9X9X9X9X9X9X9X9X9X9Xg w.9X9X9X9X9X9X9X9X9X9X9X9X9X9X9X9X9X9X9X9X9X9X9X9X9X9X9X9X9X9X9X"
};
